<mxfile host="app.diagrams.net" agent="Mozilla/5.0 (Windows NT 10.0; Win64; x64; rv:138.0) Gecko/20100101 Firefox/138.0" version="27.1.3">
  <diagram name="Strona-1" id="WqWr7oj8qtDDQA3n6tPj">
    <mxGraphModel dx="2084" dy="1318" grid="1" gridSize="10" guides="1" tooltips="1" connect="1" arrows="1" fold="1" page="1" pageScale="1" pageWidth="850" pageHeight="1100" math="0" shadow="0">
      <root>
        <mxCell id="0" />
        <mxCell id="1" parent="0" />
        <mxCell id="xyBOYaujfPxP_l2banWX-1" value="City" style="swimlane;fontStyle=1;align=center;verticalAlign=top;childLayout=stackLayout;horizontal=1;startSize=26;horizontalStack=0;resizeParent=1;resizeParentMax=0;resizeLast=0;collapsible=1;marginBottom=0;whiteSpace=wrap;html=1;" parent="1" vertex="1">
          <mxGeometry x="700" y="30" width="290" height="370" as="geometry">
            <mxRectangle x="560" y="120" width="100" height="30" as="alternateBounds" />
          </mxGeometry>
        </mxCell>
        <mxCell id="xyBOYaujfPxP_l2banWX-2" value="&lt;div&gt;&lt;div&gt;-Buildings: vector&amp;lt;Building&amp;gt;&lt;/div&gt;&lt;div&gt;&lt;div&gt;-Entities: vector &amp;lt;Entity&amp;gt;&lt;/div&gt;&lt;div&gt;-numHumans: long unsigned int&lt;/div&gt;&lt;div&gt;&lt;div&gt;-numBuildings: long unsigned int&lt;/div&gt;&lt;div&gt;&lt;div&gt;-maxIterations: long unsigned int&lt;/div&gt;&lt;div&gt;&lt;div&gt;-height: long unsigned int&lt;/div&gt;&lt;div&gt;&lt;div&gt;-length: long unsigned int&lt;/div&gt;-seed: float&lt;/div&gt;&lt;div&gt;-ValueSwitch: bool&lt;/div&gt;&lt;div&gt;-ValueSwitch2: bool&lt;/div&gt;&lt;div&gt;-outputfile: string&lt;/div&gt;&lt;/div&gt;&lt;/div&gt;&lt;/div&gt;&lt;/div&gt;&lt;/div&gt;" style="text;strokeColor=none;fillColor=none;align=left;verticalAlign=top;spacingLeft=4;spacingRight=4;overflow=hidden;rotatable=0;points=[[0,0.5],[1,0.5]];portConstraint=eastwest;whiteSpace=wrap;html=1;" parent="xyBOYaujfPxP_l2banWX-1" vertex="1">
          <mxGeometry y="26" width="290" height="164" as="geometry" />
        </mxCell>
        <mxCell id="xyBOYaujfPxP_l2banWX-3" value="" style="line;strokeWidth=1;fillColor=none;align=left;verticalAlign=middle;spacingTop=-1;spacingLeft=3;spacingRight=3;rotatable=0;labelPosition=right;points=[];portConstraint=eastwest;strokeColor=inherit;" parent="xyBOYaujfPxP_l2banWX-1" vertex="1">
          <mxGeometry y="190" width="290" height="8" as="geometry" />
        </mxCell>
        <mxCell id="xyBOYaujfPxP_l2banWX-4" value="&lt;div&gt;+start(): void&lt;/div&gt;&lt;div&gt;-giveTexture(string): sf::Texture&lt;/div&gt;&lt;div&gt;-cross(int*, int, int): void&lt;/div&gt;&lt;div&gt;-interactionBuilding(): void&lt;/div&gt;&lt;div&gt;-interactionHumanBuilding(Entity, Building): void&lt;/div&gt;&lt;div&gt;&lt;div&gt;-createBuildings(vector&amp;lt;vector&amp;lt;int&amp;gt;&amp;gt;): void&lt;/div&gt;&lt;div&gt;-createEntities(): void&lt;/div&gt;&lt;div&gt;-interactionEntities();&lt;/div&gt;&lt;/div&gt;&lt;div&gt;-camera(sf::RenderWindow, sf::View): void&lt;/div&gt;&lt;div&gt;-drawScreen(sf::RenderWindow, sf::View): void&lt;/div&gt;&lt;div&gt;-&lt;span class=&quot;html-span xdj266r x11i5rnm xat24cr x1mh8g0r xexx8yu x4uap5 x18d9i69 xkhd6sd x1hl2dhg x16tdsg8 x1vvkbs x4k7w5x x1h91t0o x1h9r5lt x1jfb8zj xv2umb2 x1beo9mf xaigb6o x12ejxvf x3igimt xarpa2k xedcshv x1lytzrv x1t2pt76 x7ja8zs x1qrby5j&quot;&gt;&lt;span dir=&quot;auto&quot; style=&quot;----base-line-clamp-line-height: 19.9995px; --lineHeight: 19.9995px;&quot; class=&quot;x1lliihq x1plvlek xryxfnj x1n2onr6 x1ji0vk5 x18bv5gf x193iq5w xeuugli x13faqbe x1vvkbs x1s928wv xhkezso x1gmr53x x1cpjm7i x1fgarty x1943h6x x1xmvt09 x6prxxf x1fcty0u xnba3h0 xudqn12 x3x7a5m xq9mrsl&quot;&gt;save(&lt;/span&gt;&lt;/span&gt;vector&amp;lt;vector&amp;lt;int&amp;gt;&amp;gt;&lt;span class=&quot;html-span xdj266r x11i5rnm xat24cr x1mh8g0r xexx8yu x4uap5 x18d9i69 xkhd6sd x1hl2dhg x16tdsg8 x1vvkbs x4k7w5x x1h91t0o x1h9r5lt x1jfb8zj xv2umb2 x1beo9mf xaigb6o x12ejxvf x3igimt xarpa2k xedcshv x1lytzrv x1t2pt76 x7ja8zs x1qrby5j&quot;&gt;&lt;span dir=&quot;auto&quot; style=&quot;----base-line-clamp-line-height: 19.9995px; --lineHeight: 19.9995px;&quot; class=&quot;x1lliihq x1plvlek xryxfnj x1n2onr6 x1ji0vk5 x18bv5gf x193iq5w xeuugli x13faqbe x1vvkbs x1s928wv xhkezso x1gmr53x x1cpjm7i x1fgarty x1943h6x x1xmvt09 x6prxxf x1fcty0u xnba3h0 xudqn12 x3x7a5m xq9mrsl&quot;&gt;): void&lt;/span&gt;&lt;/span&gt;&lt;/div&gt;&lt;div&gt;&lt;span class=&quot;html-span xdj266r x11i5rnm xat24cr x1mh8g0r xexx8yu x4uap5 x18d9i69 xkhd6sd x1hl2dhg x16tdsg8 x1vvkbs x4k7w5x x1h91t0o x1h9r5lt x1jfb8zj xv2umb2 x1beo9mf xaigb6o x12ejxvf x3igimt xarpa2k xedcshv x1lytzrv x1t2pt76 x7ja8zs x1qrby5j&quot;&gt;&lt;span dir=&quot;auto&quot; style=&quot;----base-line-clamp-line-height: 19.9995px; --lineHeight: 19.9995px;&quot; class=&quot;x1lliihq x1plvlek xryxfnj x1n2onr6 x1ji0vk5 x18bv5gf x193iq5w xeuugli x13faqbe x1vvkbs x1s928wv xhkezso x1gmr53x x1cpjm7i x1fgarty x1943h6x x1xmvt09 x6prxxf x1fcty0u xnba3h0 xudqn12 x3x7a5m xq9mrsl&quot;&gt;&lt;br&gt;&lt;/span&gt;&lt;/span&gt;&lt;/div&gt;&lt;div&gt;&lt;br&gt;&lt;/div&gt;" style="text;strokeColor=none;fillColor=none;align=left;verticalAlign=top;spacingLeft=4;spacingRight=4;overflow=hidden;rotatable=0;points=[[0,0.5],[1,0.5]];portConstraint=eastwest;whiteSpace=wrap;html=1;" parent="xyBOYaujfPxP_l2banWX-1" vertex="1">
          <mxGeometry y="198" width="290" height="172" as="geometry" />
        </mxCell>
        <mxCell id="xyBOYaujfPxP_l2banWX-5" value="&lt;p style=&quot;margin:0px;margin-top:4px;text-align:center;&quot;&gt;&lt;b&gt;Entity&lt;/b&gt;&lt;/p&gt;&lt;hr size=&quot;1&quot; style=&quot;border-style:solid;&quot;&gt;&lt;p style=&quot;margin: 0px 0px 0px 4px;&quot;&gt;-dead: bool&lt;/p&gt;&lt;p style=&quot;margin: 0px 0px 0px 4px;&quot;&gt;-drunkness: int&lt;/p&gt;&lt;p style=&quot;margin: 0px 0px 0px 4px;&quot;&gt;-hunger: int&lt;/p&gt;&lt;p style=&quot;margin: 0px 0px 0px 4px;&quot;&gt;-health: int&lt;/p&gt;&lt;p style=&quot;margin: 0px 0px 0px 4px;&quot;&gt;-attack: int&lt;/p&gt;&lt;p style=&quot;margin: 0px 0px 0px 4px;&quot;&gt;-defence: int&lt;/p&gt;&lt;p style=&quot;margin: 0px 0px 0px 4px;&quot;&gt;-swiftness: int&lt;/p&gt;&lt;p style=&quot;margin: 0px 0px 0px 4px;&quot;&gt;-happiness: int&lt;/p&gt;&lt;p style=&quot;margin: 0px 0px 0px 4px;&quot;&gt;-education: int&lt;/p&gt;&lt;p style=&quot;margin: 0px 0px 0px 4px;&quot;&gt;-money: double&lt;/p&gt;&lt;p style=&quot;margin: 0px 0px 0px 4px;&quot;&gt;-dir: int&lt;/p&gt;&lt;p style=&quot;margin: 0px 0px 0px 4px;&quot;&gt;-target: sf::Vector2f&lt;/p&gt;&lt;p style=&quot;margin: 0px 0px 0px 4px;&quot;&gt;-place: int&lt;/p&gt;&lt;p style=&quot;margin: 0px 0px 0px 4px;&quot;&gt;-entity_type: int&lt;/p&gt;&lt;p style=&quot;margin: 0px 0px 0px 4px;&quot;&gt;-ID: unsigned int&lt;/p&gt;&lt;p style=&quot;margin: 0px 0px 0px 4px;&quot;&gt;-deathIteration: unsigned int&lt;/p&gt;&lt;p style=&quot;margin: 0px 0px 0px 4px;&quot;&gt;-entity_count: static long unsigned int&lt;/p&gt;&lt;p style=&quot;margin: 0px 0px 0px 4px;&quot;&gt;-death_count: static long unsigned int&lt;/p&gt;&lt;p style=&quot;margin: 0px 0px 0px 4px;&quot;&gt;-iteration: static long unsigned int&lt;/p&gt;&lt;p style=&quot;margin: 0px 0px 0px 4px;&quot;&gt;-map: static vector&amp;lt;vector&amp;lt;int&amp;gt;&amp;gt;&lt;/p&gt;&lt;p style=&quot;margin: 0px 0px 0px 4px;&quot;&gt;-boundry: sf::Vector2i&lt;/p&gt;&lt;hr size=&quot;1&quot; style=&quot;border-style:solid;&quot;&gt;&lt;div&gt;+setIteration(): void&lt;/div&gt;&lt;div&gt;+getIteration(): int&lt;/div&gt;&lt;div&gt;+setDead(bool): void&lt;/div&gt;&lt;div&gt;+isDead(): bool&lt;/div&gt;&lt;div&gt;+getDeathCount(): int&lt;/div&gt;&lt;div&gt;+getDeathIteration(): int&lt;/div&gt;&lt;div&gt;+getDrunkness(): int&lt;/div&gt;&lt;div&gt;+addDrunkness(int)&lt;/div&gt;&lt;div&gt;+getHunger(): int&lt;/div&gt;&lt;div&gt;+addHunger(int): void&lt;/div&gt;&lt;div&gt;+getHealth(): int&lt;/div&gt;&lt;div&gt;+addHealth(int): void&lt;/div&gt;&lt;div&gt;+getHappiness(): int&lt;/div&gt;&lt;div&gt;+addHappiness(int): void&lt;/div&gt;&lt;div&gt;+getSemester(): int&lt;/div&gt;&lt;div&gt;+addSemester(int): void&lt;/div&gt;&lt;div&gt;+getAttack(): int&lt;/div&gt;&lt;div&gt;+setAttack(int): void&lt;/div&gt;&lt;div&gt;+getSwiftness(): int&lt;/div&gt;&lt;div&gt;+setSwiftness(int): void&lt;/div&gt;&lt;div&gt;+getDefence(): int&lt;/div&gt;&lt;div&gt;+setDefence(int): void&lt;/div&gt;&lt;div&gt;+addMoney(double): void&lt;/div&gt;&lt;div&gt;+getMoney(): double&lt;/div&gt;&lt;div&gt;&lt;div&gt;+setTarget(&lt;span style=&quot;background-color: transparent; color: light-dark(rgb(0, 0, 0), rgb(255, 255, 255));&quot;&gt;&lt;/span&gt;&lt;span style=&quot;background-color: transparent; color: light-dark(rgb(0, 0, 0), rgb(255, 255, 255));&quot;&gt;sf::Vector2f&lt;/span&gt;): void&lt;/div&gt;&lt;div&gt;+getTarget(): sf::Vector2f&lt;/div&gt;&lt;div&gt;+getTargetTile(): int&lt;/div&gt;&lt;div&gt;+setTargetTile(int): void&lt;/div&gt;&lt;div&gt;+setID(): void&lt;/div&gt;&lt;div&gt;+getID(): unsigned int&lt;/div&gt;&lt;div&gt;+getEntityCount(): unsigned int&lt;/div&gt;&lt;div&gt;+setMap(vector&amp;lt;vector&amp;lt;int&amp;gt;&amp;gt;, sf::Vector:2i): void&lt;/div&gt;+getMap(): vector&amp;lt;vector&amp;lt;int&amp;gt;&amp;gt;&lt;/div&gt;&lt;div&gt;+getBoundry(): sf::Vector2i&lt;/div&gt;&lt;div&gt;+setType(int): void&lt;/div&gt;&lt;div&gt;+getType(): int&lt;/div&gt;&lt;div&gt;+toSave(): virtual string&lt;/div&gt;&lt;div&gt;+checkBoundry(unsigned int, int): bool&lt;/div&gt;&lt;div&gt;+chooseTarget(): void&lt;/div&gt;&lt;div&gt;+walkBasic(): void&lt;/div&gt;&lt;div&gt;+walkDrunk(): void&lt;/div&gt;&lt;div&gt;+walkCircle(int): bool&lt;/div&gt;&lt;div&gt;+walkSpecific(int): bool&lt;/div&gt;&lt;div&gt;+fight(Entity): virtual void&lt;br&gt;+walk(): virtual void&lt;/div&gt;&lt;div&gt;-behavior(): virtual void&lt;/div&gt;" style="verticalAlign=top;align=left;overflow=fill;html=1;whiteSpace=wrap;" parent="1" vertex="1">
          <mxGeometry x="250" y="410" width="260" height="1020" as="geometry" />
        </mxCell>
        <mxCell id="xyBOYaujfPxP_l2banWX-6" value="&lt;p style=&quot;margin:0px;margin-top:4px;text-align:center;&quot;&gt;&lt;b&gt;Building&lt;/b&gt;&lt;/p&gt;&lt;hr size=&quot;1&quot; style=&quot;border-style:solid;&quot;&gt;&lt;p style=&quot;margin:0px;margin-left:4px;&quot;&gt;-money: double&lt;/p&gt;&lt;p style=&quot;margin:0px;margin-left:4px;&quot;&gt;-productValue: int&lt;/p&gt;&lt;p style=&quot;margin:0px;margin-left:4px;&quot;&gt;-price: int&lt;/p&gt;&lt;p style=&quot;margin:0px;margin-left:4px;&quot;&gt;-ID: unsigned int&lt;/p&gt;&lt;p style=&quot;margin:0px;margin-left:4px;&quot;&gt;-building_count: static long unsigned int&lt;/p&gt;&lt;p style=&quot;margin:0px;margin-left:4px;&quot;&gt;-name: string&lt;/p&gt;&lt;p style=&quot;margin:0px;margin-left:4px;&quot;&gt;&lt;/p&gt;&lt;hr size=&quot;1&quot; style=&quot;border-style:solid;&quot;&gt;&lt;p style=&quot;margin:0px;margin-left:4px;&quot;&gt;+setID(): void&lt;/p&gt;&lt;p style=&quot;margin:0px;margin-left:4px;&quot;&gt;+getID(): int:&lt;/p&gt;&lt;p style=&quot;margin:0px;margin-left:4px;&quot;&gt;+getName(): string&lt;/p&gt;&lt;p style=&quot;margin:0px;margin-left:4px;&quot;&gt;+setProductValue(int): void&lt;/p&gt;&lt;p style=&quot;margin:0px;margin-left:4px;&quot;&gt;+getProductValue(): int&lt;/p&gt;&lt;p style=&quot;margin:0px;margin-left:4px;&quot;&gt;+setPrice(int): void&lt;/p&gt;&lt;p style=&quot;margin:0px;margin-left:4px;&quot;&gt;+getPrice(): int&lt;/p&gt;&lt;p style=&quot;margin:0px;margin-left:4px;&quot;&gt;+addMoney(double): void&lt;/p&gt;&lt;p style=&quot;margin:0px;margin-left:4px;&quot;&gt;+getMoney(): double&lt;/p&gt;&lt;p style=&quot;margin:0px;margin-left:4px;&quot;&gt;+getTile(): int&lt;/p&gt;&lt;p style=&quot;margin:0px;margin-left:4px;&quot;&gt;+Build(vector&amp;lt;vector&amp;lt;int&amp;gt;&amp;gt;): bool&lt;/p&gt;" style="verticalAlign=top;align=left;overflow=fill;html=1;whiteSpace=wrap;" parent="1" vertex="1">
          <mxGeometry x="1080" y="574.29" width="230" height="300" as="geometry" />
        </mxCell>
        <mxCell id="xyBOYaujfPxP_l2banWX-7" value="Human" style="swimlane;fontStyle=1;align=center;verticalAlign=top;childLayout=stackLayout;horizontal=1;startSize=26;horizontalStack=0;resizeParent=1;resizeParentMax=0;resizeLast=0;collapsible=1;marginBottom=0;whiteSpace=wrap;html=1;" parent="1" vertex="1">
          <mxGeometry x="120" y="1520" width="160" height="240" as="geometry">
            <mxRectangle x="140" y="680" width="80" height="30" as="alternateBounds" />
          </mxGeometry>
        </mxCell>
        <mxCell id="xyBOYaujfPxP_l2banWX-8" value="&lt;div&gt;&lt;span style=&quot;background-color: transparent; color: light-dark(rgb(0, 0, 0), rgb(255, 255, 255));&quot;&gt;-item: Item&lt;/span&gt;&lt;/div&gt;&lt;div&gt;-texture: sf::Texture&lt;/div&gt;&lt;div&gt;-name: string&lt;/div&gt;&lt;div&gt;-petID: int&lt;/div&gt;&lt;div&gt;&lt;br&gt;&lt;/div&gt;" style="text;strokeColor=none;fillColor=none;align=left;verticalAlign=top;spacingLeft=4;spacingRight=4;overflow=hidden;rotatable=0;points=[[0,0.5],[1,0.5]];portConstraint=eastwest;whiteSpace=wrap;html=1;" parent="xyBOYaujfPxP_l2banWX-7" vertex="1">
          <mxGeometry y="26" width="160" height="74" as="geometry" />
        </mxCell>
        <mxCell id="xyBOYaujfPxP_l2banWX-9" value="" style="line;strokeWidth=1;fillColor=none;align=left;verticalAlign=middle;spacingTop=-1;spacingLeft=3;spacingRight=3;rotatable=0;labelPosition=right;points=[];portConstraint=eastwest;strokeColor=inherit;" parent="xyBOYaujfPxP_l2banWX-7" vertex="1">
          <mxGeometry y="100" width="160" height="8" as="geometry" />
        </mxCell>
        <mxCell id="xyBOYaujfPxP_l2banWX-10" value="&lt;div&gt;+walk(): void&lt;/div&gt;&lt;div&gt;+fight(Entity): void&lt;/div&gt;&lt;div&gt;+toSave(): string&lt;/div&gt;&lt;div&gt;+getName(): string&lt;/div&gt;&lt;div&gt;+setPetID(int): void:&lt;/div&gt;&lt;div&gt;+getPetID(): int&lt;/div&gt;&lt;div&gt;-setName(): void&lt;/div&gt;&lt;div&gt;-behavior(): void&lt;/div&gt;" style="text;strokeColor=none;fillColor=none;align=left;verticalAlign=top;spacingLeft=4;spacingRight=4;overflow=hidden;rotatable=0;points=[[0,0.5],[1,0.5]];portConstraint=eastwest;whiteSpace=wrap;html=1;" parent="xyBOYaujfPxP_l2banWX-7" vertex="1">
          <mxGeometry y="108" width="160" height="132" as="geometry" />
        </mxCell>
        <mxCell id="xyBOYaujfPxP_l2banWX-11" value="Animal" style="swimlane;fontStyle=1;align=center;verticalAlign=top;childLayout=stackLayout;horizontal=1;startSize=26;horizontalStack=0;resizeParent=1;resizeParentMax=0;resizeLast=0;collapsible=1;marginBottom=0;whiteSpace=wrap;html=1;" parent="1" vertex="1">
          <mxGeometry x="390" y="1510" width="160" height="200" as="geometry" />
        </mxCell>
        <mxCell id="xyBOYaujfPxP_l2banWX-12" value="&lt;div&gt;&lt;span style=&quot;background-color: transparent; color: light-dark(rgb(0, 0, 0), rgb(255, 255, 255));&quot;&gt;-name: string&lt;/span&gt;&lt;/div&gt;&lt;div&gt;&lt;span style=&quot;background-color: transparent; color: light-dark(rgb(0, 0, 0), rgb(255, 255, 255));&quot;&gt;-owner: Human&lt;/span&gt;&lt;/div&gt;" style="text;strokeColor=none;fillColor=none;align=left;verticalAlign=top;spacingLeft=4;spacingRight=4;overflow=hidden;rotatable=0;points=[[0,0.5],[1,0.5]];portConstraint=eastwest;whiteSpace=wrap;html=1;" parent="xyBOYaujfPxP_l2banWX-11" vertex="1">
          <mxGeometry y="26" width="160" height="44" as="geometry" />
        </mxCell>
        <mxCell id="xyBOYaujfPxP_l2banWX-13" value="" style="line;strokeWidth=1;fillColor=none;align=left;verticalAlign=middle;spacingTop=-1;spacingLeft=3;spacingRight=3;rotatable=0;labelPosition=right;points=[];portConstraint=eastwest;strokeColor=inherit;" parent="xyBOYaujfPxP_l2banWX-11" vertex="1">
          <mxGeometry y="70" width="160" height="8" as="geometry" />
        </mxCell>
        <mxCell id="xyBOYaujfPxP_l2banWX-14" value="&lt;div&gt;+walk(): void&lt;/div&gt;&lt;div&gt;+fight(Entity): void&lt;/div&gt;&lt;div&gt;+getOwner(): Human&lt;/div&gt;&lt;div&gt;+hunt(): void&lt;/div&gt;&lt;div&gt;+getName(): string&lt;/div&gt;&lt;div&gt;+setName(string): void&lt;/div&gt;&lt;div&gt;+toSave(): string&lt;/div&gt;&lt;div&gt;-behavior(): void&lt;/div&gt;" style="text;strokeColor=none;fillColor=none;align=left;verticalAlign=top;spacingLeft=4;spacingRight=4;overflow=hidden;rotatable=0;points=[[0,0.5],[1,0.5]];portConstraint=eastwest;whiteSpace=wrap;html=1;" parent="xyBOYaujfPxP_l2banWX-11" vertex="1">
          <mxGeometry y="78" width="160" height="122" as="geometry" />
        </mxCell>
        <mxCell id="xyBOYaujfPxP_l2banWX-15" value="Item" style="swimlane;fontStyle=1;align=center;verticalAlign=top;childLayout=stackLayout;horizontal=1;startSize=26;horizontalStack=0;resizeParent=1;resizeParentMax=0;resizeLast=0;collapsible=1;marginBottom=0;whiteSpace=wrap;html=1;" parent="1" vertex="1">
          <mxGeometry x="120" y="1850" width="160" height="170" as="geometry" />
        </mxCell>
        <mxCell id="xyBOYaujfPxP_l2banWX-16" value="&lt;div&gt;-name: string&lt;/div&gt;&lt;div&gt;-attack: int&lt;/div&gt;&lt;div&gt;-swiftness: int&lt;/div&gt;&lt;div&gt;-defence: int&lt;/div&gt;" style="text;strokeColor=none;fillColor=none;align=left;verticalAlign=top;spacingLeft=4;spacingRight=4;overflow=hidden;rotatable=0;points=[[0,0.5],[1,0.5]];portConstraint=eastwest;whiteSpace=wrap;html=1;" parent="xyBOYaujfPxP_l2banWX-15" vertex="1">
          <mxGeometry y="26" width="160" height="64" as="geometry" />
        </mxCell>
        <mxCell id="xyBOYaujfPxP_l2banWX-17" value="" style="line;strokeWidth=1;fillColor=none;align=left;verticalAlign=middle;spacingTop=-1;spacingLeft=3;spacingRight=3;rotatable=0;labelPosition=right;points=[];portConstraint=eastwest;strokeColor=inherit;" parent="xyBOYaujfPxP_l2banWX-15" vertex="1">
          <mxGeometry y="90" width="160" height="10" as="geometry" />
        </mxCell>
        <mxCell id="xyBOYaujfPxP_l2banWX-18" value="+getAttack(): int&lt;div&gt;+getSwiftness(): int&lt;/div&gt;&lt;div&gt;+getDefence(): int&lt;/div&gt;&lt;div&gt;+getName(): string&lt;/div&gt;" style="text;strokeColor=none;fillColor=none;align=left;verticalAlign=top;spacingLeft=4;spacingRight=4;overflow=hidden;rotatable=0;points=[[0,0.5],[1,0.5]];portConstraint=eastwest;whiteSpace=wrap;html=1;" parent="xyBOYaujfPxP_l2banWX-15" vertex="1">
          <mxGeometry y="100" width="160" height="70" as="geometry" />
        </mxCell>
        <mxCell id="xyBOYaujfPxP_l2banWX-19" value="" style="endArrow=block;endSize=16;endFill=0;html=1;rounded=0;entryX=0.5;entryY=1;entryDx=0;entryDy=0;exitX=0.5;exitY=0;exitDx=0;exitDy=0;" parent="1" source="xyBOYaujfPxP_l2banWX-7" target="xyBOYaujfPxP_l2banWX-5" edge="1">
          <mxGeometry width="160" relative="1" as="geometry">
            <mxPoint x="210" y="890" as="sourcePoint" />
            <mxPoint x="265" y="845" as="targetPoint" />
          </mxGeometry>
        </mxCell>
        <mxCell id="xyBOYaujfPxP_l2banWX-20" value="" style="endArrow=block;endSize=16;endFill=0;html=1;rounded=0;entryX=0.5;entryY=1;entryDx=0;entryDy=0;exitX=0.5;exitY=0;exitDx=0;exitDy=0;" parent="1" source="xyBOYaujfPxP_l2banWX-11" target="xyBOYaujfPxP_l2banWX-5" edge="1">
          <mxGeometry width="160" relative="1" as="geometry">
            <mxPoint x="490" y="840" as="sourcePoint" />
            <mxPoint x="490" y="760" as="targetPoint" />
          </mxGeometry>
        </mxCell>
        <mxCell id="xyBOYaujfPxP_l2banWX-21" value="&lt;div&gt;Shop&lt;/div&gt;" style="swimlane;fontStyle=1;align=center;verticalAlign=top;childLayout=stackLayout;horizontal=1;startSize=26;horizontalStack=0;resizeParent=1;resizeParentMax=0;resizeLast=0;collapsible=1;marginBottom=0;whiteSpace=wrap;html=1;" parent="1" vertex="1">
          <mxGeometry x="930" y="924.29" width="160" height="76" as="geometry" />
        </mxCell>
        <mxCell id="xyBOYaujfPxP_l2banWX-22" value="" style="line;strokeWidth=1;fillColor=none;align=left;verticalAlign=middle;spacingTop=-1;spacingLeft=3;spacingRight=3;rotatable=0;labelPosition=right;points=[];portConstraint=eastwest;strokeColor=inherit;" parent="xyBOYaujfPxP_l2banWX-21" vertex="1">
          <mxGeometry y="26" width="160" height="50" as="geometry" />
        </mxCell>
        <mxCell id="xyBOYaujfPxP_l2banWX-23" value="Liquor Store" style="swimlane;fontStyle=1;align=center;verticalAlign=top;childLayout=stackLayout;horizontal=1;startSize=26;horizontalStack=0;resizeParent=1;resizeParentMax=0;resizeLast=0;collapsible=1;marginBottom=0;whiteSpace=wrap;html=1;" parent="1" vertex="1">
          <mxGeometry x="1150" y="924.29" width="160" height="86" as="geometry" />
        </mxCell>
        <mxCell id="xyBOYaujfPxP_l2banWX-24" value="" style="line;strokeWidth=1;fillColor=none;align=left;verticalAlign=middle;spacingTop=-1;spacingLeft=3;spacingRight=3;rotatable=0;labelPosition=right;points=[];portConstraint=eastwest;strokeColor=inherit;" parent="xyBOYaujfPxP_l2banWX-23" vertex="1">
          <mxGeometry y="26" width="160" height="60" as="geometry" />
        </mxCell>
        <mxCell id="xyBOYaujfPxP_l2banWX-29" value="" style="endArrow=block;endSize=16;endFill=0;html=1;rounded=0;" parent="1" source="xyBOYaujfPxP_l2banWX-21" target="xyBOYaujfPxP_l2banWX-6" edge="1">
          <mxGeometry width="160" relative="1" as="geometry">
            <mxPoint x="1000" y="854.29" as="sourcePoint" />
            <mxPoint x="951" y="795.29" as="targetPoint" />
          </mxGeometry>
        </mxCell>
        <mxCell id="xyBOYaujfPxP_l2banWX-30" value="" style="endArrow=block;endSize=16;endFill=0;html=1;rounded=0;" parent="1" source="xyBOYaujfPxP_l2banWX-23" target="xyBOYaujfPxP_l2banWX-6" edge="1">
          <mxGeometry width="160" relative="1" as="geometry">
            <mxPoint x="1137" y="604.29" as="sourcePoint" />
            <mxPoint x="1162" y="544.29" as="targetPoint" />
          </mxGeometry>
        </mxCell>
        <mxCell id="xyBOYaujfPxP_l2banWX-31" value="" style="endArrow=block;endSize=16;endFill=0;html=1;rounded=0;" parent="1" source="luDhFU78j-6fOeD2awXC-18" target="xyBOYaujfPxP_l2banWX-6" edge="1">
          <mxGeometry width="160" relative="1" as="geometry">
            <mxPoint x="1455.2941176470588" y="934.29" as="sourcePoint" />
            <mxPoint x="1172" y="554.29" as="targetPoint" />
          </mxGeometry>
        </mxCell>
        <mxCell id="xyBOYaujfPxP_l2banWX-32" value="" style="endArrow=block;endSize=16;endFill=0;html=1;rounded=0;" parent="1" source="xyBOYaujfPxP_l2banWX-27" target="xyBOYaujfPxP_l2banWX-6" edge="1">
          <mxGeometry width="160" relative="1" as="geometry">
            <mxPoint x="1157" y="624.29" as="sourcePoint" />
            <mxPoint x="1182" y="564.29" as="targetPoint" />
          </mxGeometry>
        </mxCell>
        <mxCell id="xyBOYaujfPxP_l2banWX-33" value="1" style="endArrow=diamondThin;endFill=1;endSize=24;html=1;rounded=0;" parent="1" source="xyBOYaujfPxP_l2banWX-15" target="xyBOYaujfPxP_l2banWX-7" edge="1">
          <mxGeometry x="-0.7778" y="-20" width="160" relative="1" as="geometry">
            <mxPoint x="220" y="1130" as="sourcePoint" />
            <mxPoint x="380" y="1130" as="targetPoint" />
            <mxPoint as="offset" />
          </mxGeometry>
        </mxCell>
        <mxCell id="xyBOYaujfPxP_l2banWX-34" value="1" style="edgeLabel;html=1;align=center;verticalAlign=middle;resizable=0;points=[];" parent="xyBOYaujfPxP_l2banWX-33" vertex="1" connectable="0">
          <mxGeometry x="0.1962" y="-2" relative="1" as="geometry">
            <mxPoint x="18" y="-16" as="offset" />
          </mxGeometry>
        </mxCell>
        <mxCell id="xyBOYaujfPxP_l2banWX-35" value="1" style="endArrow=diamondThin;endFill=0;endSize=24;html=1;rounded=0;" parent="1" source="xyBOYaujfPxP_l2banWX-7" target="xyBOYaujfPxP_l2banWX-11" edge="1">
          <mxGeometry x="-0.8182" y="-15" width="160" relative="1" as="geometry">
            <mxPoint x="860" y="1420" as="sourcePoint" />
            <mxPoint x="750" y="1420" as="targetPoint" />
            <mxPoint as="offset" />
          </mxGeometry>
        </mxCell>
        <mxCell id="xyBOYaujfPxP_l2banWX-36" value="0..1" style="edgeLabel;html=1;align=center;verticalAlign=middle;resizable=0;points=[];" parent="xyBOYaujfPxP_l2banWX-35" vertex="1" connectable="0">
          <mxGeometry x="-0.1867" y="1" relative="1" as="geometry">
            <mxPoint x="35" y="-16" as="offset" />
          </mxGeometry>
        </mxCell>
        <mxCell id="xyBOYaujfPxP_l2banWX-37" value="0..*" style="endArrow=diamondThin;endFill=1;endSize=24;html=1;rounded=0;" parent="1" source="xyBOYaujfPxP_l2banWX-5" target="xyBOYaujfPxP_l2banWX-1" edge="1">
          <mxGeometry x="-0.8413" y="-20" width="160" relative="1" as="geometry">
            <mxPoint x="290" y="636" as="sourcePoint" />
            <mxPoint x="790" y="699.7674418604652" as="targetPoint" />
            <mxPoint as="offset" />
          </mxGeometry>
        </mxCell>
        <mxCell id="xyBOYaujfPxP_l2banWX-38" value="1" style="edgeLabel;html=1;align=center;verticalAlign=middle;resizable=0;points=[];" parent="xyBOYaujfPxP_l2banWX-37" vertex="1" connectable="0">
          <mxGeometry x="0.1962" y="-2" relative="1" as="geometry">
            <mxPoint x="13" y="-36" as="offset" />
          </mxGeometry>
        </mxCell>
        <mxCell id="xyBOYaujfPxP_l2banWX-39" value="0..*" style="endArrow=diamondThin;endFill=1;endSize=24;html=1;rounded=0;" parent="1" source="xyBOYaujfPxP_l2banWX-6" target="xyBOYaujfPxP_l2banWX-1" edge="1">
          <mxGeometry x="-0.8413" y="-20" width="160" relative="1" as="geometry">
            <mxPoint x="630" y="249" as="sourcePoint" />
            <mxPoint x="770" y="160" as="targetPoint" />
            <mxPoint as="offset" />
          </mxGeometry>
        </mxCell>
        <mxCell id="xyBOYaujfPxP_l2banWX-40" value="1" style="edgeLabel;html=1;align=center;verticalAlign=middle;resizable=0;points=[];" parent="xyBOYaujfPxP_l2banWX-39" vertex="1" connectable="0">
          <mxGeometry x="0.1962" y="-2" relative="1" as="geometry">
            <mxPoint x="7" y="-8" as="offset" />
          </mxGeometry>
        </mxCell>
        <mxCell id="luDhFU78j-6fOeD2awXC-6" value="" style="endArrow=block;endSize=16;endFill=0;html=1;rounded=0;" edge="1" parent="1" source="luDhFU78j-6fOeD2awXC-10" target="xyBOYaujfPxP_l2banWX-11">
          <mxGeometry width="160" relative="1" as="geometry">
            <mxPoint x="470" y="1800" as="sourcePoint" />
            <mxPoint x="590" y="1680" as="targetPoint" />
          </mxGeometry>
        </mxCell>
        <mxCell id="luDhFU78j-6fOeD2awXC-7" value="" style="endArrow=block;endSize=16;endFill=0;html=1;rounded=0;" edge="1" parent="1" source="luDhFU78j-6fOeD2awXC-14" target="xyBOYaujfPxP_l2banWX-11">
          <mxGeometry width="160" relative="1" as="geometry">
            <mxPoint x="670" y="1800" as="sourcePoint" />
            <mxPoint x="780" y="1730" as="targetPoint" />
          </mxGeometry>
        </mxCell>
        <mxCell id="luDhFU78j-6fOeD2awXC-10" value="Cat" style="swimlane;fontStyle=1;align=center;verticalAlign=top;childLayout=stackLayout;horizontal=1;startSize=26;horizontalStack=0;resizeParent=1;resizeParentMax=0;resizeLast=0;collapsible=1;marginBottom=0;whiteSpace=wrap;html=1;" vertex="1" parent="1">
          <mxGeometry x="390" y="1810" width="160" height="90" as="geometry" />
        </mxCell>
        <mxCell id="luDhFU78j-6fOeD2awXC-11" value="&lt;div&gt;&lt;span style=&quot;background-color: transparent; color: light-dark(rgb(0, 0, 0), rgb(255, 255, 255));&quot;&gt;-texture: static sf::Texture&lt;/span&gt;&lt;/div&gt;" style="text;strokeColor=none;fillColor=none;align=left;verticalAlign=top;spacingLeft=4;spacingRight=4;overflow=hidden;rotatable=0;points=[[0,0.5],[1,0.5]];portConstraint=eastwest;whiteSpace=wrap;html=1;" vertex="1" parent="luDhFU78j-6fOeD2awXC-10">
          <mxGeometry y="26" width="160" height="24" as="geometry" />
        </mxCell>
        <mxCell id="luDhFU78j-6fOeD2awXC-12" value="" style="line;strokeWidth=1;fillColor=none;align=left;verticalAlign=middle;spacingTop=-1;spacingLeft=3;spacingRight=3;rotatable=0;labelPosition=right;points=[];portConstraint=eastwest;strokeColor=inherit;" vertex="1" parent="luDhFU78j-6fOeD2awXC-10">
          <mxGeometry y="50" width="160" height="8" as="geometry" />
        </mxCell>
        <mxCell id="luDhFU78j-6fOeD2awXC-13" value="&lt;div&gt;&lt;div&gt;-behavior(): void&lt;/div&gt;&lt;/div&gt;&lt;div&gt;&lt;br&gt;&lt;/div&gt;" style="text;strokeColor=none;fillColor=none;align=left;verticalAlign=top;spacingLeft=4;spacingRight=4;overflow=hidden;rotatable=0;points=[[0,0.5],[1,0.5]];portConstraint=eastwest;whiteSpace=wrap;html=1;" vertex="1" parent="luDhFU78j-6fOeD2awXC-10">
          <mxGeometry y="58" width="160" height="32" as="geometry" />
        </mxCell>
        <mxCell id="luDhFU78j-6fOeD2awXC-14" value="Dog" style="swimlane;fontStyle=1;align=center;verticalAlign=top;childLayout=stackLayout;horizontal=1;startSize=26;horizontalStack=0;resizeParent=1;resizeParentMax=0;resizeLast=0;collapsible=1;marginBottom=0;whiteSpace=wrap;html=1;" vertex="1" parent="1">
          <mxGeometry x="600" y="1810" width="160" height="110" as="geometry" />
        </mxCell>
        <mxCell id="luDhFU78j-6fOeD2awXC-15" value="&lt;div&gt;&lt;span style=&quot;background-color: transparent; color: light-dark(rgb(0, 0, 0), rgb(255, 255, 255));&quot;&gt;-texture: static sf::Texture&lt;/span&gt;&lt;/div&gt;&lt;div&gt;&lt;span style=&quot;background-color: transparent; color: light-dark(rgb(0, 0, 0), rgb(255, 255, 255));&quot;&gt;-followPosition: sf::Vector2f&lt;/span&gt;&lt;/div&gt;" style="text;strokeColor=none;fillColor=none;align=left;verticalAlign=top;spacingLeft=4;spacingRight=4;overflow=hidden;rotatable=0;points=[[0,0.5],[1,0.5]];portConstraint=eastwest;whiteSpace=wrap;html=1;" vertex="1" parent="luDhFU78j-6fOeD2awXC-14">
          <mxGeometry y="26" width="160" height="44" as="geometry" />
        </mxCell>
        <mxCell id="luDhFU78j-6fOeD2awXC-16" value="" style="line;strokeWidth=1;fillColor=none;align=left;verticalAlign=middle;spacingTop=-1;spacingLeft=3;spacingRight=3;rotatable=0;labelPosition=right;points=[];portConstraint=eastwest;strokeColor=inherit;" vertex="1" parent="luDhFU78j-6fOeD2awXC-14">
          <mxGeometry y="70" width="160" height="8" as="geometry" />
        </mxCell>
        <mxCell id="luDhFU78j-6fOeD2awXC-17" value="&lt;div&gt;-behavior(): void&lt;/div&gt;&lt;div&gt;&lt;br&gt;&lt;/div&gt;" style="text;strokeColor=none;fillColor=none;align=left;verticalAlign=top;spacingLeft=4;spacingRight=4;overflow=hidden;rotatable=0;points=[[0,0.5],[1,0.5]];portConstraint=eastwest;whiteSpace=wrap;html=1;" vertex="1" parent="luDhFU78j-6fOeD2awXC-14">
          <mxGeometry y="78" width="160" height="32" as="geometry" />
        </mxCell>
        <mxCell id="luDhFU78j-6fOeD2awXC-18" value="Hospital" style="swimlane;fontStyle=1;align=center;verticalAlign=top;childLayout=stackLayout;horizontal=1;startSize=26;horizontalStack=0;resizeParent=1;resizeParentMax=0;resizeLast=0;collapsible=1;marginBottom=0;whiteSpace=wrap;html=1;" vertex="1" parent="1">
          <mxGeometry x="1370" y="927.29" width="160" height="70" as="geometry" />
        </mxCell>
        <mxCell id="luDhFU78j-6fOeD2awXC-19" value="" style="line;strokeWidth=1;fillColor=none;align=left;verticalAlign=middle;spacingTop=-1;spacingLeft=3;spacingRight=3;rotatable=0;labelPosition=right;points=[];portConstraint=eastwest;strokeColor=inherit;" vertex="1" parent="luDhFU78j-6fOeD2awXC-18">
          <mxGeometry y="26" width="160" height="44" as="geometry" />
        </mxCell>
        <mxCell id="luDhFU78j-6fOeD2awXC-20" value="Polytechnic" style="swimlane;fontStyle=1;align=center;verticalAlign=top;childLayout=stackLayout;horizontal=1;startSize=26;horizontalStack=0;resizeParent=1;resizeParentMax=0;resizeLast=0;collapsible=1;marginBottom=0;whiteSpace=wrap;html=1;" vertex="1" parent="1">
          <mxGeometry x="1410" y="624.29" width="160" height="70" as="geometry" />
        </mxCell>
        <mxCell id="luDhFU78j-6fOeD2awXC-21" value="" style="line;strokeWidth=1;fillColor=none;align=left;verticalAlign=middle;spacingTop=-1;spacingLeft=3;spacingRight=3;rotatable=0;labelPosition=right;points=[];portConstraint=eastwest;strokeColor=inherit;" vertex="1" parent="luDhFU78j-6fOeD2awXC-20">
          <mxGeometry y="26" width="160" height="44" as="geometry" />
        </mxCell>
        <mxCell id="luDhFU78j-6fOeD2awXC-22" value="" style="endArrow=block;endSize=16;endFill=0;html=1;rounded=0;" edge="1" parent="1" source="xyBOYaujfPxP_l2banWX-27" target="xyBOYaujfPxP_l2banWX-6">
          <mxGeometry width="160" relative="1" as="geometry">
            <mxPoint x="1630" y="824.29" as="sourcePoint" />
            <mxPoint x="1400" y="894.29" as="targetPoint" />
          </mxGeometry>
        </mxCell>
        <mxCell id="luDhFU78j-6fOeD2awXC-23" value="" style="endArrow=block;endSize=16;endFill=0;html=1;rounded=0;" edge="1" parent="1" source="luDhFU78j-6fOeD2awXC-20" target="xyBOYaujfPxP_l2banWX-6">
          <mxGeometry width="160" relative="1" as="geometry">
            <mxPoint x="1595" y="820.29" as="sourcePoint" />
            <mxPoint x="1310" y="752.29" as="targetPoint" />
          </mxGeometry>
        </mxCell>
        <mxCell id="xyBOYaujfPxP_l2banWX-27" value="Office Building" style="swimlane;fontStyle=1;align=center;verticalAlign=top;childLayout=stackLayout;horizontal=1;startSize=26;horizontalStack=0;resizeParent=1;resizeParentMax=0;resizeLast=0;collapsible=1;marginBottom=0;whiteSpace=wrap;html=1;" parent="1" vertex="1">
          <mxGeometry x="1410" y="784.29" width="160" height="70" as="geometry" />
        </mxCell>
        <mxCell id="xyBOYaujfPxP_l2banWX-28" value="" style="line;strokeWidth=1;fillColor=none;align=left;verticalAlign=middle;spacingTop=-1;spacingLeft=3;spacingRight=3;rotatable=0;labelPosition=right;points=[];portConstraint=eastwest;strokeColor=inherit;" parent="xyBOYaujfPxP_l2banWX-27" vertex="1">
          <mxGeometry y="26" width="160" height="44" as="geometry" />
        </mxCell>
      </root>
    </mxGraphModel>
  </diagram>
</mxfile>
